##     ## #### ##     ## ########          ######  ##     ##  #######  
##     ##  ##  ##     ## ##               ##    ## ###   ### ##     ## 
##     ##  ##  ##     ## ##               ##       #### #### ##     ## 
#########  ##  ##     ## ######   ####### ##       ## ### ##  #######  
##     ##  ##   ##   ##  ##               ##       ##     ## ##     ## 
##     ##  ##    ## ##   ##               ##    ## ##     ## ##     ## 
##     ## ####    ###    ########          ######  ##     ##  #######  

###########  Thx Hive - CM8 Doing It Right The First Time  ###########


Quartet.2012.DVDRip.XVID.AC3.HQ.Hive-CM8


Source: DVD

Video.: 720x304 @bitrate 1200 2pass
Audio.: English AC3 5.1 @448
Sample: Yes, included


IMDb..: http://www.imdb.com/title/tt1441951/


ENCODE
retail is in a month and quality was nice,
just colours were a bit off, which i fixed
added sharpness,brightness,rgb and denoise
got very nice
enjoy


General
Complete name                  : Quartet.2012.DVDRip.XVID.AC3.HQ.Hive-CM8.avi
Format                         : AVI
Format/Info                    : Audio Video Interleave
File size                      : 1.09 GiB
Duration                       : 1h 34mn
Overall bit rate               : 1 657 Kbps
Writing application            : Nandub v1.0rc2
Writing library                : Nandub build 1853/release

Video
ID                             : 0
Format                         : MPEG-4 Visual
Format profile                 : Advanced Simple@L5
Format settings, BVOP          : 2
Format settings, QPel          : Yes
Format settings, GMC           : No warppoints
Format settings, Matrix        : Default (H.263)
Muxing mode                    : Packed bitstream
Codec ID                       : XVID
Codec ID/Hint                  : XviD
Duration                       : 1h 34mn
Bit rate                       : 1 200 Kbps
Width                          : 720 pixels
Height                         : 304 pixels
Display aspect ratio           : 2.35:1
Frame rate                     : 25.000 fps
Color space                    : YUV
Chroma subsampling             : 4:2:0
Bit depth                      : 8 bits
Scan type                      : Progressive
Compression mode               : Lossy
Bits/(Pixel*Frame)             : 0.219
Stream size                    : 809 MiB (72%)
Writing library                : XviD 1.2.1 (UTC 2008-12-04)

Audio
ID                             : 1
Format                         : AC-3
Format/Info                    : Audio Coding 3
Mode extension                 : CM (complete main)
Format settings, Endianness    : Big
Codec ID                       : 2000
Duration                       : 1h 34mn
Bit rate mode                  : Constant
Bit rate                       : 448 Kbps
Channel(s)                     : 6 channels
Channel positions              : Front: L C R, Side: L R, LFE
Sampling rate                  : 48.0 KHz
Bit depth                      : 16 bits
Compression mode               : Lossy
Stream size                    : 302 MiB (27%)
Alignment                      : Split accross interleaves
Interleave, duration           : 40 ms (1.00 video frame)
Interleave, preload duration   : 500 ms


PLOT
At a home for retired musicians, the annual concert to celebrate
Verdi's birthday is disrupted by the arrival of Jean, an eternal
diva and the former wife of one of the residents.

DIRECTOR
Dustin Hoffman

CAST
Maggie Smith     ...     Jean Horton
Tom Courtenay    ...     Reginald Paget
Billy Connolly   ...     Wilf Bond


ANY THANKS
stallone (jase)

GREETZ
ViSiON,SPK,SceneLovers,PRESTiGE,SANTi,3LT0N,YanKeeS,COPYxRIGHT,THC,T0XiC
D2U,LKRG,ADTRG,Feel-Free,KoDeKinG,FLAWL3SS,WBZ,BHRG,26K,NOVA,MAGNET
Unevano,BigVik,Rapeseed,SAFC,goldadvance,KaN1vE,Pinnz,Wayne,TED
SeeN,jtr,Limey,ICONiK,4PlayHD,THEDEN-RG,eXceSs,AKS74u,HiGH
Mr Hive,trepario,stallone,and most P2P groups
Great Work Guys!

LOOKING FOR ANYTHING YOU WANT TO LOOK AND SOUND BETTER

CM8@hushmail.com


Poster:

 
http://i.imgur.com/WO0ccZI.jpg


Screenshots:

 
http://i.imgur.com/Wfcrs18.jpg


SEED AND ENJOY!